<?xml version="1.0" encoding="utf-8"?>
<!-- Generator: Adobe Illustrator 21.1.0, SVG Export Plug-In . SVG Version: 6.00 Build 0)  -->
<svg version="1.1" id="Layer_1" xmlns="http://www.w3.org/2000/svg" xmlns:xlink="http://www.w3.org/1999/xlink" x="0px" y="0px" width="34" height="34"
	 viewBox="0 0 34 34" style="enable-background:new 0 0 34 34;" xml:space="preserve">
<style type="text/css">
	.st0{fill:none;stroke:#9B9B9B;stroke-width:1.5;}
	.st1{fill:#9B9B9B;}
</style>
<g transform="translate(1 1)">
	<path class="st0" d="M16,32c8.8,0,16-7.2,16-16c0-8.8-7.2-16-16-16S0,7.2,0,16C0,24.8,7.2,32,16,32z"/>
	<path class="st1" d="M16.2,24.7c-2.5,0-4.9-1.2-6.3-3.3c-0.4-0.5-0.2-1.3,0.3-1.6s1.3-0.2,1.6,0.3l0,0c1,1.4,2.6,2.3,4.3,2.3
		c1.7,0,3.3-0.9,4.3-2.3c0.4-0.5,1.1-0.7,1.6-0.3s0.7,1.1,0.3,1.6C21.1,23.5,18.7,24.7,16.2,24.7z"/>
	<circle class="st1" cx="7.1" cy="14.2" r="1.8"/>
	<circle class="st1" cx="24.9" cy="14.2" r="1.8"/>
</g>
</svg>
